<svg width="20" height="20" viewBox="0 0 20 20" fill="none" xmlns="http://www.w3.org/2000/svg">
<path d="M19.39 6.64C19.39 6.64 19.39 6.64 19.39 6.59C18.6854 4.66622 17.4069 3.00528 15.7275 1.83186C14.0481 0.658443 12.0487 0.029171 9.99999 0.029171C7.95124 0.029171 5.95193 0.658443 4.2725 1.83186C2.59308 3.00528 1.31459 4.66622 0.609993 6.59C0.609993 6.59 0.609993 6.59 0.609993 6.64C-0.176882 8.8109 -0.176882 11.1891 0.609993 13.36C0.609993 13.36 0.609993 13.36 0.609993 13.41C1.31459 15.3338 2.59308 16.9947 4.2725 18.1681C5.95193 19.3416 7.95124 19.9708 9.99999 19.9708C12.0487 19.9708 14.0481 19.3416 15.7275 18.1681C17.4069 16.9947 18.6854 15.3338 19.39 13.41C19.39 13.41 19.39 13.41 19.39 13.36C20.1769 11.1891 20.1769 8.8109 19.39 6.64ZM2.23999 12C1.89322 10.6892 1.89322 9.31079 2.23999 8H4.09999C3.94002 9.32854 3.94002 10.6715 4.09999 12H2.23999ZM3.05999 14H4.45999C4.69471 14.8918 5.03021 15.7541 5.45999 16.57C4.47929 15.9019 3.65949 15.0241 3.05999 14ZM4.45999 6H3.05999C3.65086 4.97908 4.46018 4.10147 5.42999 3.43C5.01055 4.24724 4.68513 5.10942 4.45999 6ZM8.97999 17.7C7.75176 16.7987 6.88914 15.4852 6.54999 14H8.97999V17.7ZM8.97999 12H6.11999C5.93338 10.6732 5.93338 9.3268 6.11999 8H8.97999V12ZM8.97999 6H6.54999C6.88914 4.51477 7.75176 3.20132 8.97999 2.3V6ZM16.9 6H15.5C15.2653 5.10816 14.9298 4.24594 14.5 3.43C15.4807 4.09807 16.3005 4.97594 16.9 6ZM10.98 2.3C12.2082 3.20132 13.0708 4.51477 13.41 6H10.98V2.3ZM10.98 17.7V14H13.41C13.0708 15.4852 12.2082 16.7987 10.98 17.7ZM13.84 12H10.98V8H13.84C14.0266 9.3268 14.0266 10.6732 13.84 12ZM14.53 16.57C14.9598 15.7541 15.2953 14.8918 15.53 14H16.93C16.3305 15.0241 15.5107 15.9019 14.53 16.57ZM17.72 12H15.86C15.9413 11.3365 15.9814 10.6685 15.98 10C15.9811 9.3315 15.941 8.66357 15.86 8H17.72C18.0668 9.31079 18.0668 10.6892 17.72 12Z" fill="#FBF8FF"/>
</svg>
