<svg width="20" height="21" viewBox="0 0 20 21" fill="none" xmlns="http://www.w3.org/2000/svg">
<path d="M19.39 7.14C19.39 7.14 19.39 7.14 19.39 7.09C18.6854 5.16623 17.4069 3.50529 15.7275 2.33187C14.0481 1.15845 12.0487 0.529175 9.99999 0.529175C7.95124 0.529175 5.95193 1.15845 4.2725 2.33187C2.59308 3.50529 1.31459 5.16623 0.609993 7.09C0.609993 7.09 0.609993 7.09 0.609993 7.14C-0.176882 9.3109 -0.176882 11.6891 0.609993 13.86C0.609993 13.86 0.609993 13.86 0.609993 13.91C1.31459 15.8338 2.59308 17.4947 4.2725 18.6681C5.95193 19.8416 7.95124 20.4708 9.99999 20.4708C12.0487 20.4708 14.0481 19.8416 15.7275 18.6681C17.4069 17.4947 18.6854 15.8338 19.39 13.91C19.39 13.91 19.39 13.91 19.39 13.86C20.1769 11.6891 20.1769 9.3109 19.39 7.14ZM2.23999 12.5C1.89322 11.1892 1.89322 9.81079 2.23999 8.5H4.09999C3.94002 9.82854 3.94002 11.1715 4.09999 12.5H2.23999ZM3.05999 14.5H4.45999C4.69471 15.3918 5.03021 16.2541 5.45999 17.07C4.47929 16.4019 3.65949 15.5241 3.05999 14.5ZM4.45999 6.5H3.05999C3.65086 5.47909 4.46018 4.60147 5.42999 3.93C5.01055 4.74725 4.68513 5.60942 4.45999 6.5ZM8.97999 18.2C7.75176 17.2987 6.88914 15.9852 6.54999 14.5H8.97999V18.2ZM8.97999 12.5H6.11999C5.93338 11.1732 5.93338 9.82681 6.11999 8.5H8.97999V12.5ZM8.97999 6.5H6.54999C6.88914 5.01477 7.75176 3.70132 8.97999 2.8V6.5ZM16.9 6.5H15.5C15.2653 5.60816 14.9298 4.74594 14.5 3.93C15.4807 4.59807 16.3005 5.47594 16.9 6.5ZM10.98 2.8C12.2082 3.70132 13.0708 5.01477 13.41 6.5H10.98V2.8ZM10.98 18.2V14.5H13.41C13.0708 15.9852 12.2082 17.2987 10.98 18.2ZM13.84 12.5H10.98V8.5H13.84C14.0266 9.82681 14.0266 11.1732 13.84 12.5ZM14.53 17.07C14.9598 16.2541 15.2953 15.3918 15.53 14.5H16.93C16.3305 15.5241 15.5107 16.4019 14.53 17.07ZM17.72 12.5H15.86C15.9413 11.8365 15.9814 11.1685 15.98 10.5C15.9811 9.83151 15.941 9.16357 15.86 8.5H17.72C18.0668 9.81079 18.0668 11.1892 17.72 12.5Z" fill="#223CDD"/>
</svg>
