<svg width="25" height="24" viewBox="0 0 25 24" fill="none" xmlns="http://www.w3.org/2000/svg">
<g clip-path="url(#clip0_380_10870)">
<path d="M24.21 16.67C21.16 13.78 17.04 12 12.5 12C7.96 12 3.84 13.78 0.79 16.67C0.61 16.85 0.5 17.1 0.5 17.38C0.5 17.66 0.61 17.91 0.79 18.09L3.27 20.57C3.45 20.75 3.7 20.86 3.98 20.86C4.25 20.86 4.5 20.75 4.68 20.58C5.47 19.84 6.37 19.22 7.34 18.73C7.67 18.57 7.9 18.23 7.9 17.83V14.73C9.35 14.25 10.9 14 12.5 14C14.1 14 15.65 14.25 17.1 14.72V17.82C17.1 18.21 17.33 18.56 17.66 18.72C18.64 19.21 19.53 19.84 20.32 20.57C20.5 20.75 20.75 20.85 21.02 20.85C21.3 20.85 21.55 20.74 21.73 20.56L24.21 18.08C24.39 17.9 24.5 17.65 24.5 17.37C24.5 17.1 24.39 16.85 24.21 16.67ZM21.66 6.26L20.25 4.85L16.69 8.4L18.1 9.81C18.1 9.81 21.55 6.29 21.66 6.26ZM13.5 2H11.5V7H13.5V2ZM6.9 9.81L8.31 8.4L4.76 4.84L3.34 6.26C3.45 6.29 6.9 9.81 6.9 9.81Z" fill="#0A1242"/>
</g>
<defs>
<clipPath id="clip0_380_10870">
<rect width="24" height="24" fill="white" transform="translate(0.5)"/>
</clipPath>
</defs>
</svg>
