<svg width="107" height="107" viewBox="0 0 107 107" fill="none" xmlns="http://www.w3.org/2000/svg">
<rect x="2.06706" y="2.16667" width="102.667" height="102.667" rx="9.33333" fill="white"/>
<rect x="2.06706" y="2.16667" width="102.667" height="102.667" rx="9.33333" stroke="#FBF8FF" stroke-width="2.66667"/>
<path d="M70.0667 72.25V68.0833C70.0667 65.8732 69.1888 63.7536 67.626 62.1908C66.0631 60.628 63.9435 59.75 61.7334 59.75H45.0667C42.8566 59.75 40.737 60.628 39.1742 62.1908C37.6114 63.7536 36.7334 65.8732 36.7334 68.0833V72.25M61.7334 43.0833C61.7334 47.6857 58.0024 51.4167 53.4001 51.4167C48.7977 51.4167 45.0667 47.6857 45.0667 43.0833C45.0667 38.481 48.7977 34.75 53.4001 34.75C58.0024 34.75 61.7334 38.481 61.7334 43.0833Z" stroke="#958BB6" stroke-width="4.44444" stroke-linecap="round" stroke-linejoin="round"/>
</svg>
