<svg width="32" height="33" viewBox="0 0 32 33" fill="none" xmlns="http://www.w3.org/2000/svg">
<path d="M16 19.2541C14.5 19.2541 13.2 18.0541 13.2 16.4541C13.2 14.9541 14.4 13.6541 16 13.6541C17.5 13.6541 18.8 14.8541 18.8 16.4541C18.8 17.9541 17.5 19.2541 16 19.2541Z" fill="#FBF8FF"/>
<path fill-rule="evenodd" clip-rule="evenodd" d="M19.4 9.6541H12.6C11.8 9.7541 11.4 9.8541 11.1 9.9541C10.7 10.0541 10.4 10.2541 10.1 10.5541C9.86261 10.7915 9.75045 11.0289 9.61489 11.3158C9.57916 11.3914 9.5417 11.4707 9.5 11.5541C9.48453 11.6005 9.46667 11.6493 9.44752 11.7016C9.34291 11.9874 9.2 12.3779 9.2 13.0541V19.8541C9.3 20.6541 9.4 21.0541 9.5 21.3541C9.6 21.7541 9.8 22.0541 10.1 22.3541C10.3374 22.5915 10.5748 22.7036 10.8617 22.8392C10.9374 22.875 11.0165 22.9124 11.1 22.9541C11.1464 22.9696 11.1952 22.9874 11.2475 23.0066C11.5333 23.1112 11.9238 23.2541 12.6 23.2541H19.4C20.2 23.1541 20.6 23.0541 20.9 22.9541C21.3 22.8541 21.6 22.6541 21.9 22.3541C22.1374 22.1167 22.2495 21.8793 22.3851 21.5924C22.4209 21.5167 22.4583 21.4376 22.5 21.3541C22.5155 21.3077 22.5333 21.2589 22.5525 21.2066C22.6571 20.9208 22.8 20.5303 22.8 19.8541V13.0541C22.7 12.2541 22.6 11.8541 22.5 11.5541C22.4 11.1541 22.2 10.8541 21.9 10.5541C21.6626 10.3167 21.4252 10.2046 21.1383 10.069C21.0627 10.0333 20.9833 9.99577 20.9 9.9541C20.8536 9.93863 20.8048 9.92077 20.7525 9.90162C20.4667 9.79701 20.0762 9.6541 19.4 9.6541ZM16 12.1541C13.6 12.1541 11.7 14.0541 11.7 16.4541C11.7 18.8541 13.6 20.7541 16 20.7541C18.4 20.7541 20.3 18.8541 20.3 16.4541C20.3 14.0541 18.4 12.1541 16 12.1541ZM21.4 12.0541C21.4 12.6064 20.9523 13.0541 20.4 13.0541C19.8477 13.0541 19.4 12.6064 19.4 12.0541C19.4 11.5018 19.8477 11.0541 20.4 11.0541C20.9523 11.0541 21.4 11.5018 21.4 12.0541Z" fill="#FBF8FF"/>
<path fill-rule="evenodd" clip-rule="evenodd" d="M0 16.4541C0 7.61755 7.16344 0.454102 16 0.454102C24.8366 0.454102 32 7.61755 32 16.4541C32 25.2907 24.8366 32.4541 16 32.4541C7.16344 32.4541 0 25.2907 0 16.4541ZM12.6 8.1541H19.4C20.3 8.2541 20.9 8.3541 21.4 8.5541C22 8.8541 22.4 9.0541 22.9 9.5541C23.4 10.0541 23.7 10.5541 23.9 11.0541C24.1 11.5541 24.3 12.1541 24.3 13.0541V19.8541C24.2 20.7541 24.1 21.3541 23.9 21.8541C23.6 22.4541 23.4 22.8541 22.9 23.3541C22.4 23.8541 21.9 24.1541 21.4 24.3541C20.9 24.5541 20.3 24.7541 19.4 24.7541H12.6C11.7 24.6541 11.1 24.5541 10.6 24.3541C10 24.0541 9.6 23.8541 9.1 23.3541C8.6 22.8541 8.3 22.3541 8.1 21.8541C7.9 21.3541 7.7 20.7541 7.7 19.8541V13.0541C7.8 12.1541 7.9 11.5541 8.1 11.0541C8.4 10.4541 8.6 10.0541 9.1 9.5541C9.6 9.0541 10.1 8.7541 10.6 8.5541C11.1 8.3541 11.7 8.1541 12.6 8.1541Z" fill="#FBF8FF"/>
</svg>
