<svg width="208" height="94" viewBox="0 0 208 94" fill="none" xmlns="http://www.w3.org/2000/svg">
<g opacity="0.75">
<path d="M33.4143 25.5245H45.1743L45.1583 58.7267L39.295 67.6782L33.4143 58.702V25.5245Z" stroke="#FBF8FF" stroke-width="2.17481" stroke-miterlimit="10"/>
<path d="M34.3568 33.1365H44.7988" stroke="#FBF8FF" stroke-width="2.17481" stroke-miterlimit="10"/>
<path d="M50.7403 25.5247H67.6487L67.9155 68.4758H50.7403V25.5247Z" stroke="#FBF8FF" stroke-width="2.17481" stroke-miterlimit="10"/>
<path d="M51.6826 35.3842H58.8726" stroke="#FBF8FF" stroke-width="1.87324" stroke-miterlimit="10"/>
<path d="M51.6826 46.9831H58.8726" stroke="#FBF8FF" stroke-width="1.87324" stroke-miterlimit="10"/>
<path d="M51.2478 58.582H58.4377" stroke="#FBF8FF" stroke-width="1.87324" stroke-miterlimit="10"/>
<path d="M105.862 55.6015C107.148 56.5219 108.546 57.2534 110.056 57.7962L108.127 61.4952C107.337 61.2592 106.564 60.9347 105.809 60.5218C105.644 60.4392 104.481 59.6722 102.322 58.2209C100.623 58.9643 98.7411 59.336 96.6762 59.336C92.6881 59.336 89.5613 58.1619 87.2959 55.8139C85.0423 53.4659 83.9155 50.168 83.9155 45.9204C83.9155 41.6845 85.0482 38.3925 87.3136 36.0445C89.579 33.6847 92.6527 32.5048 96.5346 32.5048C100.381 32.5048 103.431 33.6847 105.685 36.0445C107.938 38.3925 109.065 41.6845 109.065 45.9204C109.065 48.1622 108.753 50.1326 108.127 51.8317C107.655 53.1296 106.9 54.3862 105.862 55.6015ZM101.65 52.6459C102.322 51.8553 102.824 50.8996 103.154 49.7787C103.496 48.6578 103.667 47.3716 103.667 45.9204C103.667 42.9234 103.006 40.6874 101.685 39.2126C100.363 37.7259 98.6349 36.9825 96.4992 36.9825C94.3636 36.9825 92.6291 37.7259 91.2958 39.2126C89.9743 40.6992 89.3136 42.9352 89.3136 45.9204C89.3136 48.9527 89.9743 51.2241 91.2958 52.7343C92.6291 54.2328 94.3105 54.9821 96.3399 54.9821C97.0951 54.9821 97.8089 54.8582 98.4815 54.6104C97.4196 53.9143 96.3399 53.3715 95.2426 52.9821L96.7116 49.9911C98.4343 50.581 100.08 51.4659 101.65 52.6459Z" fill="#FBF8FF"/>
<path d="M125.525 58.8935V56.0794C124.841 57.0823 123.938 57.8729 122.817 58.451C121.708 59.0292 120.534 59.3183 119.295 59.3183C118.033 59.3183 116.9 59.041 115.897 58.4864C114.894 57.9319 114.168 57.1531 113.72 56.1502C113.272 55.1473 113.047 53.7609 113.047 51.991V40.0975H118.021V48.7344C118.021 51.3774 118.109 52.9998 118.286 53.6016C118.475 54.1915 118.811 54.6635 119.295 55.0175C119.779 55.3597 120.392 55.5307 121.136 55.5307C121.985 55.5307 122.746 55.3007 123.419 54.8405C124.091 54.3685 124.552 53.7904 124.799 53.106C125.047 52.4099 125.171 50.7167 125.171 48.0265V40.0975H130.144V58.8935H125.525Z" fill="#FBF8FF"/>
<path d="M140.073 58.8935H135.1V40.0975H139.719V42.77C140.51 41.5075 141.218 40.6756 141.843 40.2745C142.48 39.8733 143.2 39.6727 144.002 39.6727C145.135 39.6727 146.227 39.9854 147.277 40.6108L145.737 44.9469C144.899 44.4042 144.12 44.1328 143.401 44.1328C142.705 44.1328 142.115 44.3275 141.631 44.7168C141.147 45.0944 140.764 45.7847 140.48 46.7876C140.209 47.7905 140.073 49.8908 140.073 53.0883V58.8935Z" fill="#FBF8FF"/>
<path d="M153.153 45.8319L148.64 45.0177C149.147 43.2007 150.02 41.8556 151.259 40.9824C152.498 40.1093 154.339 39.6727 156.781 39.6727C158.999 39.6727 160.651 39.9382 161.737 40.4692C162.822 40.9883 163.583 41.655 164.02 42.4691C164.468 43.2715 164.692 44.7522 164.692 46.9115L164.639 52.7167C164.639 54.3685 164.716 55.5897 164.869 56.3803C165.034 57.159 165.335 57.9968 165.772 58.8935H160.852C160.722 58.5631 160.563 58.0734 160.374 57.4245C160.291 57.1295 160.232 56.9348 160.197 56.8404C159.347 57.6664 158.439 58.2858 157.471 58.6988C156.504 59.1118 155.471 59.3183 154.374 59.3183C152.439 59.3183 150.911 58.7932 149.79 57.7431C148.681 56.693 148.126 55.3656 148.126 53.7609C148.126 52.699 148.38 51.755 148.887 50.9291C149.395 50.0913 150.103 49.4542 151.011 49.0176C151.931 48.5693 153.253 48.1799 154.976 47.8495C157.3 47.4129 158.911 47.0059 159.807 46.6283V46.1327C159.807 45.177 159.571 44.4986 159.099 44.0974C158.627 43.6844 157.737 43.4779 156.427 43.4779C155.542 43.4779 154.852 43.6549 154.356 44.0089C153.861 44.3511 153.459 44.9587 153.153 45.8319ZM159.807 49.8672C159.17 50.0795 158.161 50.3332 156.781 50.6282C155.4 50.9232 154.498 51.2123 154.073 51.4954C153.424 51.9556 153.1 52.5397 153.1 53.2476C153.1 53.9438 153.359 54.5455 153.878 55.0529C154.398 55.5602 155.058 55.8139 155.861 55.8139C156.757 55.8139 157.613 55.5189 158.427 54.929C159.029 54.4806 159.424 53.932 159.613 53.283C159.743 52.8582 159.807 52.05 159.807 50.8583V49.8672Z" fill="#FBF8FF"/>
<path d="M169.612 58.8935V32.9472H174.586V58.8935H169.612Z" fill="#FBF8FF"/>
</g>
</svg>
