<svg width="32" height="33" viewBox="0 0 32 33" fill="none" xmlns="http://www.w3.org/2000/svg">
<path fill-rule="evenodd" clip-rule="evenodd" d="M16 32.4541C7.16344 32.4541 0 25.2907 0 16.4541C0 7.61755 7.16344 0.454102 16 0.454102C24.8366 0.454102 32 7.61755 32 16.4541C32 25.2907 24.8366 32.4541 16 32.4541ZM16.6919 12.4615C15.2589 13.0575 12.3949 14.2912 8.09992 16.1624C7.40248 16.4397 7.03714 16.7111 7.00388 16.9764C6.94767 17.4247 7.50915 17.6013 8.27374 17.8417C8.37774 17.8744 8.4855 17.9083 8.59598 17.9442C9.34822 18.1887 10.3601 18.4748 10.8862 18.4862C11.3633 18.4965 11.8959 18.2998 12.4839 17.896C16.4968 15.1872 18.5683 13.818 18.6983 13.7885C18.7901 13.7677 18.9172 13.7415 19.0034 13.818C19.0895 13.8946 19.0811 14.0396 19.0719 14.0785C19.0163 14.3156 16.8123 16.3647 15.6717 17.4251C15.3161 17.7556 15.0639 17.9901 15.0124 18.0437C14.8969 18.1637 14.7791 18.2771 14.666 18.3862C13.9672 19.0599 13.4431 19.5651 14.695 20.3901C15.2967 20.7866 15.7781 21.1144 16.2584 21.4415C16.7829 21.7987 17.306 22.155 17.9829 22.5987C18.1554 22.7117 18.3201 22.8291 18.4805 22.9435C19.0909 23.3787 19.6393 23.7696 20.3168 23.7073C20.7105 23.6711 21.1172 23.3009 21.3237 22.1968C21.8118 19.5876 22.7712 13.9342 22.9929 11.6046C23.0123 11.4005 22.9879 11.1392 22.9683 11.0246C22.9486 10.9099 22.9076 10.7465 22.7586 10.6256C22.582 10.4824 22.3095 10.4522 22.1877 10.4542C21.6335 10.4641 20.7834 10.7597 16.6919 12.4615Z" fill="#FBF8FF"/>
</svg>
