<svg width="32" height="33" viewBox="0 0 32 33" fill="none" xmlns="http://www.w3.org/2000/svg">
<path fill-rule="evenodd" clip-rule="evenodd" d="M12.6 22.1541C13.6 22.7541 14.8 23.0541 16 23.0541C19.7 23.0541 22.6 20.0541 22.6 16.5541C22.6 14.7541 22 13.1541 20.7 11.8541C19.4 10.6541 17.8 9.9541 16 9.9541C12.4 9.9541 9.39999 12.9541 9.39999 16.5541C9.39999 17.7541 9.7 18.9541 10.4 20.0541L10.6 20.3541L9.89999 22.7541L12.4 22.0541L12.6 22.1541ZM18.2 17.4541C18.4 17.4541 19.4 17.9541 19.6 18.0541C19.6311 18.0697 19.6623 18.0828 19.6931 18.0958C19.8599 18.1662 20.0156 18.232 20.1 18.6541C20.2 18.6541 20.2 19.0541 20 19.5541C19.9 19.9541 19.1 20.4541 18.7 20.4541C18.6322 20.4541 18.5673 20.4598 18.498 20.466C18.1582 20.496 17.712 20.5355 16.3 19.9541C14.5475 19.2531 13.3325 17.554 12.9913 17.0769C12.9431 17.0095 12.9124 16.9665 12.9 16.9541C12.883 16.9201 12.8485 16.8657 12.8031 16.794C12.5819 16.4447 12.1 15.6838 12.1 14.8541C12.1 13.8541 12.6 13.3541 12.8 13.1541C13 12.9541 13.2 12.9541 13.3 12.9541H13.7C13.8 12.9541 14 12.9541 14.1 13.2541C14.3 13.6541 14.7 14.6541 14.7 14.7541C14.7 14.7874 14.7111 14.8208 14.7222 14.8541C14.7445 14.9208 14.7667 14.9874 14.7 15.0541C14.65 15.1041 14.625 15.1541 14.6 15.2041C14.575 15.2541 14.55 15.3041 14.5 15.3541L14.2 15.6541C14.1 15.7541 14 15.8541 14.1 16.0541C14.2 16.2541 14.6 16.9541 15.2 17.4541C15.8751 18.0448 16.4078 18.2795 16.6778 18.3984C16.7278 18.4204 16.7688 18.4385 16.8 18.4541C17 18.4541 17.1 18.4541 17.2 18.3541C17.25 18.2541 17.375 18.1041 17.5 17.9541C17.625 17.8041 17.75 17.6541 17.8 17.5541C17.9 17.3541 18 17.3541 18.2 17.4541Z" fill="#FBF8FF"/>
<path fill-rule="evenodd" clip-rule="evenodd" d="M0 16.4541C0 7.61755 7.16344 0.454102 16 0.454102C24.8366 0.454102 32 7.61755 32 16.4541C32 25.2907 24.8366 32.4541 16 32.4541C7.16344 32.4541 0 25.2907 0 16.4541ZM16 8.4541C18.1 8.4541 20.1 9.2541 21.6 10.7541C23.1 12.2541 24 14.2541 24 16.3541C24 20.7541 20.4 24.3541 16 24.3541C14.7 24.3541 13.4 23.9541 12.2 23.3541L8 24.4541L9.10001 20.4541C8.40001 19.2541 8 17.8541 8 16.4541C8 12.0541 11.6 8.4541 16 8.4541Z" fill="#FBF8FF"/>
</svg>
