<svg width="176" height="80" viewBox="0 0 176 80" fill="none" xmlns="http://www.w3.org/2000/svg">
<path d="M17.4143 18.5245H29.1742L29.1583 51.7267L23.295 60.6782L17.4143 51.7021V18.5245Z" stroke="#223CDD" stroke-width="2.17481" stroke-miterlimit="10"/>
<path d="M18.3567 26.1365H28.7987" stroke="#223CDD" stroke-width="2.17481" stroke-miterlimit="10"/>
<path d="M34.7402 18.5247H51.6487L51.9155 61.4758H34.7402V18.5247Z" stroke="#223CDD" stroke-width="2.17481" stroke-miterlimit="10"/>
<path d="M35.6826 28.3842H42.8726" stroke="#223CDD" stroke-width="1.87324" stroke-miterlimit="10"/>
<path d="M35.6826 39.9831H42.8726" stroke="#223CDD" stroke-width="1.87324" stroke-miterlimit="10"/>
<path d="M35.2478 51.582H42.4377" stroke="#223CDD" stroke-width="1.87324" stroke-miterlimit="10"/>
<path d="M89.8619 48.6016C91.148 49.5219 92.5462 50.2534 94.0565 50.7962L92.1273 54.4952C91.3368 54.2592 90.5639 53.9348 89.8088 53.5218C89.6436 53.4392 88.4814 52.6723 86.3222 51.221C84.6231 51.9643 82.7411 52.336 80.6763 52.336C76.6882 52.336 73.5614 51.162 71.296 48.8139C69.0423 46.4659 67.9155 43.1681 67.9155 38.9204C67.9155 34.6845 69.0482 31.3925 71.3137 29.0445C73.5791 26.6847 76.6528 25.5048 80.5347 25.5048C84.3812 25.5048 87.4313 26.6847 89.6849 29.0445C91.9385 31.3925 93.0653 34.6845 93.0653 38.9204C93.0653 41.1622 92.7527 43.1327 92.1273 44.8317C91.6554 46.1296 90.9002 47.3862 89.8619 48.6016ZM85.6496 45.6459C86.3222 44.8553 86.8236 43.8996 87.154 42.7787C87.4962 41.6578 87.6673 40.3717 87.6673 38.9204C87.6673 35.9234 87.0065 33.6875 85.685 32.2126C84.3635 30.7259 82.6349 29.9825 80.4993 29.9825C78.3636 29.9825 76.6292 30.7259 75.2959 32.2126C73.9744 33.6993 73.3136 35.9352 73.3136 38.9204C73.3136 41.9528 73.9744 44.2241 75.2959 45.7344C76.6292 47.2329 78.3106 47.9821 80.34 47.9821C81.0951 47.9821 81.809 47.8582 82.4815 47.6104C81.4196 46.9143 80.34 46.3715 79.2427 45.9822L80.7117 42.9911C82.4343 43.581 84.0803 44.466 85.6496 45.6459Z" fill="#223CDD"/>
<path d="M109.525 51.8935V49.0794C108.841 50.0823 107.938 50.8729 106.817 51.451C105.708 52.0292 104.534 52.3183 103.295 52.3183C102.033 52.3183 100.9 52.041 99.897 51.4864C98.8941 50.9319 98.1685 50.1531 97.7201 49.1502C97.2717 48.1473 97.0476 46.7609 97.0476 44.991V33.0975H102.021V41.7345C102.021 44.3775 102.109 45.9999 102.286 46.6016C102.475 47.1916 102.811 47.6635 103.295 48.0175C103.779 48.3597 104.393 48.5308 105.136 48.5308C105.985 48.5308 106.746 48.3007 107.419 47.8405C108.092 47.3686 108.552 46.7904 108.799 46.106C109.047 45.4099 109.171 43.7167 109.171 41.0265V33.0975H114.144V51.8935H109.525Z" fill="#223CDD"/>
<path d="M124.073 51.8935H119.1V33.0975H123.719V35.77C124.51 34.5075 125.218 33.6757 125.843 33.2745C126.48 32.8733 127.2 32.6727 128.003 32.6727C129.135 32.6727 130.227 32.9854 131.277 33.6108L129.737 37.947C128.899 37.4042 128.121 37.1328 127.401 37.1328C126.705 37.1328 126.115 37.3275 125.631 37.7169C125.147 38.0944 124.764 38.7847 124.481 39.7876C124.209 40.7905 124.073 42.8908 124.073 46.0883V51.8935Z" fill="#223CDD"/>
<path d="M137.153 38.8319L132.64 38.0177C133.147 36.2007 134.02 34.8556 135.259 33.9825C136.498 33.1093 138.339 32.6727 140.781 32.6727C142.999 32.6727 144.651 32.9382 145.737 33.4692C146.822 33.9883 147.583 34.655 148.02 35.4691C148.468 36.2715 148.692 37.7523 148.692 39.9115L148.639 45.7167C148.639 47.3685 148.716 48.5898 148.869 49.3803C149.034 50.159 149.335 50.9968 149.772 51.8935H144.852C144.722 51.5631 144.563 51.0735 144.374 50.4245C144.291 50.1295 144.232 49.9349 144.197 49.8405C143.347 50.6664 142.439 51.2859 141.471 51.6988C140.504 52.1118 139.471 52.3183 138.374 52.3183C136.439 52.3183 134.911 51.7932 133.79 50.7431C132.681 49.693 132.126 48.3656 132.126 46.7609C132.126 45.699 132.38 44.755 132.887 43.9291C133.395 43.0914 134.103 42.4542 135.011 42.0176C135.932 41.5693 137.253 41.1799 138.976 40.8495C141.3 40.413 142.911 40.0059 143.807 39.6283V39.1328C143.807 38.177 143.571 37.4986 143.1 37.0974C142.628 36.6844 141.737 36.478 140.427 36.478C139.542 36.478 138.852 36.655 138.356 37.0089C137.861 37.3511 137.46 37.9588 137.153 38.8319ZM143.807 42.8672C143.17 43.0796 142.161 43.3333 140.781 43.6282C139.4 43.9232 138.498 44.2123 138.073 44.4955C137.424 44.9556 137.1 45.5397 137.1 46.2476C137.1 46.9438 137.359 47.5455 137.878 48.0529C138.398 48.5603 139.058 48.8139 139.861 48.8139C140.757 48.8139 141.613 48.519 142.427 47.929C143.029 47.4806 143.424 46.932 143.613 46.283C143.743 45.8583 143.807 45.05 143.807 43.8583V42.8672Z" fill="#223CDD"/>
<path d="M153.613 51.8935V25.9473H158.586V51.8935H153.613Z" fill="#223CDD"/>
</svg>
